<?xml version="1.0" encoding="UTF-8" standalone="no"?>
<svg
   viewBox="0 0 512 512"
   version="1.1"
   id="svg4"
   sodipodi:docname="magnifying-glass-solid-red.svg"
   inkscape:version="1.2.2 (732a01da63, 2022-12-09)"
   xmlns:inkscape="http://www.inkscape.org/namespaces/inkscape"
   xmlns:sodipodi="http://sodipodi.sourceforge.net/DTD/sodipodi-0.dtd"
   xmlns="http://www.w3.org/2000/svg"
   xmlns:svg="http://www.w3.org/2000/svg">
  <defs
     id="defs8" />
  <sodipodi:namedview
     id="namedview6"
     pagecolor="#ffffff"
     bordercolor="#000000"
     borderopacity="0.25"
     inkscape:showpageshadow="2"
     inkscape:pageopacity="0.0"
     inkscape:pagecheckerboard="0"
     inkscape:deskcolor="#d1d1d1"
     showgrid="false"
     inkscape:zoom="0.39575166"
     inkscape:cx="-325.96199"
     inkscape:cy="227.41534"
     inkscape:window-width="1366"
     inkscape:window-height="705"
     inkscape:window-x="-8"
     inkscape:window-y="-8"
     inkscape:window-maximized="1"
     inkscape:current-layer="svg4" />
  <path
     d="m 416,208 c 0,45.9 -14.9,88.3 -40,122.7 l 126.6,126.7 c 12.5,12.5 12.5,32.8 0,45.3 -12.5,12.5 -32.8,12.5 -45.3,0 L 330.7,376 C 296.3,401.2 253.9,416 208,416 93.1,416 0,322.9 0,208 0,93.1 93.1,0 208,0 322.9,0 416,93.1 416,208 Z M 208,352 a 144,144 0 1 0 0,-288 144,144 0 1 0 0,288 z"
     id="path2"
     style="fill:#f9f9f9;fill-opacity:1" />
</svg>
